Born To Race is the story of Danny Krueger, a rebellious young street racer on a collision course with trouble. After an accident at an illegal street race, he is sent to a small town to live with his estranged father, a washed up NASCAR racer. When Danny decides to enter the NHRA High School Drags, he's forced to seek his father's help in taking down the local hot shot.

CAST:

Joseph Cross..............Danny Krueger
John Pyper-Ferguson.......Frank Krueger
Brando Eaton..............Jake Kendall
Nicole Badaan.............Jessica
Sherry Stringfield........Lisa Abrams
Spencer Breslin...........Max
Christina Moore...........Ms. Parker
Erik King.................Mr. Briggs
Johanna Braddy............Rachel
Matt McCoy................Joe
Grant Show................Jimmy Kendall
Walter Perez..............Tony
Michael Esparza...........Sanchez
Ali Afshar................Himself
Whitmer Thomas............Harry 

Format                           : Matroska
File size                        : 748 MiB
Duration                         : 1h 34mn
Overall bit rate                 : 1 105 Kbps
Encoded date                     : UTC 2011-10-02 06:42:41
Writing application              : mkvmerge v5.0.0 ('Die Wahre Liebe') built on Sep 25 2011 20:33:49
Writing library                  : libebml v1.2.2 + libmatroska v1.3.0

Video
*****
ID                               : 1
Format                           : AVC
Format/Info                      : Advanced Video Codec
Format profile                   : Main@L2.1
Format settings, CABAC           : Yes
Format settings, ReFrames        : 4 frames
Muxing mode                      : Container profile=Unknown@2.1
Codec ID                         : V_MPEG4/ISO/AVC
Duration                         : 1h 34mn
Bit rate                         : 955 Kbps
Nominal bit rate                 : 976 Kbps
Width                            : 640 pixels
Height                           : 300 pixels
Display aspect ratio             : 2.2:1
Frame rate                       : 23.976 fps
Resolution                       : 8 bits
Colorimetry                      : 4:2:0
Scan type                        : Progressive
Bits/(Pixel*Frame)               : 0.207
Stream size                      : 646 MiB (86%)
Writing library                  : x264 core 112

Audio
*****
ID                               : 2
Format                           : AC-3
Format/Info                      : Audio Coding 3
Codec ID                         : A_AC3
Duration                         : 1h 34mn
Bit rate mode                    : Constant
Bit rate                         : 128 Kbps
Channel(s)                       : 2 channels
Channel positions                : Front: L R
Sampling rate                    : 48.0 KHz
Stream size                      : 86.7 MiB (12%)

Text(subtitles)
***************
ID                               : 3
Format                           : UTF-8
Codec ID                         : S_TEXT/UTF8
Codec ID/Info                    : UTF-8 Plain Text
Language                         : Romanian
Language                         : Spanish
Language                         : Dutch

PLEASE SEED FOR AS LONG AS POSSIBLE!